<svg width="460" height="419" viewBox="0 0 460 419" fill="none" xmlns="http://www.w3.org/2000/svg">
<path d="M383 368L396 367L402 366.5H406.5H408.5H410H410.5V366.5C410.776 366.5 411 366.724 411 367V368M411 368V368C411 369.36 409.861 370.443 408.503 370.375L401 370L392.5 369.5H390.5H388.5L411 368Z" stroke="black" stroke-opacity="0.45" stroke-width="3"/>
<path d="M157 75.5L157.5 73.5L440 57.5L443.5 63.5L434 270L430 274.5L157 307L156.5 304.5" stroke="black" stroke-width="4"/>
<path d="M412 372L392 371L380.5 368L378.5 367" stroke="black" stroke-width="2"/>
<path d="M182 334.5L183 343L195 343.5L197.5 340.5V336L197 332.5" stroke="#16A34A" stroke-width="2"/>
<path d="M225 328V337L228 338H236L239 337V326M266.5 322.5V331L268.5 333H278.5L281 331V320.5" stroke="#16A34A" stroke-width="2"/>
<path d="M306.5 317.5V326.5L308.5 328H318L321 326.5V315" stroke="#16A34A" stroke-width="2"/>
<path d="M306.5 317.5V326.5L308.5 328H318L321 326.5V315" stroke="#16A34A" stroke-width="2"/>
<path d="M345 312.5V321.5L347 323H356.5L359.5 321.5V310" stroke="#16A34A" stroke-width="2"/>
<path d="M385.5 307V316L387.5 317H395.5L398 316V305.5" stroke="#16A34A" stroke-width="2"/>
<path d="M167.5 396.5L373.5 367H376H381L384.5 366.5L389.5 366L398 365L403 364.5H407L410 364H411M412.5 304V303.5" stroke="#16A34A" stroke-width="2"/>
<path d="M31 37V85.5M31 37L138 62M31 37L47.5 13L377 2.5L438 20.5M31 85.5L98.5 125.5L101.5 129L102.5 133.5V153.5L110.5 158L116 162.5L120 167.5L121.5 173.5M31 85.5L3 88V130L29.5 147.27M121.5 173.5V193M121.5 173.5L138 176.5M121.5 268V212.5V193M121.5 268L120.5 269V284M121.5 268L140 271.5V288L138 290L120.5 284M138 62V173.5V176.5M138 62L163 32.5L438 20.5M138 176.5L144 179.5V196.5L140 198L121.5 193M120.5 284V285L118 292L114 295.5H109H101.5V313.5L98.5 316H94.5H34L29.5 315.839M29.5 315.839L6 315L2 312.5V270H29.5M29.5 315.839V378.5L31 382L33 385.5L109 416.5H121.5L157 411L163 407.5L166 398.5V336M166 336L123 338L122 342M166 336V334.5L413 303V371H422.5L432 368L435 364L437 299L446 290L447 289V256L444.5 254.5L449.5 247.5L450.5 244L454.5 146.5L453 145.5L457 44.5L438 20.5M29.5 147.27L47.5 159L67 171L71 179.5V260L69 266.5L63.5 270H29.5M29.5 147.27V270" stroke="black" stroke-width="4"/>
<path d="M190 351.5L182 354L177.5 358.5L174.5 364L173.5 372V379L174.5 383.5L177.5 386.5L182 389H190L196 386.5L201.5 383.5L205 377.5L206.5 366.5L205 360L201.5 354L196 351.5H191.5" stroke="#16A34A" stroke-width="2"/>
<path d="M182 354L190 351.5H191.5H196L201.5 354L205 360L206.5 366.5L205 377.5L201.5 383.5L196 386.5L190 389H182L177.5 386.5L174.5 383.5L173.5 379V372L174.5 364L177.5 358.5L182 354Z" stroke="#16A34A" stroke-width="2"/>
<path d="M224.5 348.5L232.5 346H234H238.5L244 348.5L247.5 354.5L249 361L247.5 372L244 378L238.5 381L232.5 383.5H224.5L220 381L217 378L216 373.5V366.5L217 358.5L220 353L224.5 348.5Z" stroke="#16A34A" stroke-width="2"/>
<path d="M266.5 342.5L274.5 340H276H280.5L286 342.5L289.5 348.5L291 355L289.5 366L286 372L280.5 375L274.5 377.5H266.5L262 375L259 372L258 367.5V360.5L259 352.5L262 347L266.5 342.5Z" stroke="#16A34A" stroke-width="2"/>
<path d="M305.5 337.5L313.5 335H315L319.5 335.5L324.5 338.5L327.5 344.5L328.5 349.5L327 359.5L323.5 364L321 368L316 370.5L311.5 371L306 370L301 366L299 362L298 354.5L299 347L301 342L305.5 337.5Z" stroke="#16A34A" stroke-width="2"/>
<path d="M345.5 332.5L353.5 330H355L360 331L364 335L366.5 340V345.5L366 354.5L364 359L361 362.5L356 365.5L351.5 366L346 365L341 361L339 357L338 349.5L339 342L341 337L345.5 332.5Z" stroke="#16A34A" stroke-width="2"/>
<path d="M380 332L384.5 327.5L389 325H392.5H395L398.5 326L403 330L405.5 335V340.5L405 349.5L403 353.5L400 357.5L395 360L390.5 360.5L385 360L380 356L378 352L377 344.5L378 337L380 332Z" stroke="#16A34A" stroke-width="2"/>
<g filter="url(#filter0_d_3_52)">
<path d="M199.511 159.748L190.817 160.509L192.638 136.988L201.072 136.25C203.426 136.044 205.43 136.352 207.084 137.173C208.744 137.986 209.977 139.254 210.782 140.978C211.594 142.695 211.903 144.797 211.71 147.285C211.525 149.689 210.914 151.788 209.877 153.583C208.848 155.376 207.452 156.802 205.689 157.862C203.925 158.913 201.866 159.542 199.511 159.748ZM196.784 155.173L199.444 154.94C200.742 154.827 201.869 154.492 202.824 153.937C203.786 153.374 204.55 152.543 205.116 151.444C205.681 150.337 206.028 148.919 206.158 147.189C206.287 145.535 206.163 144.25 205.786 143.332C205.416 142.406 204.798 141.776 203.933 141.441C203.074 141.098 201.98 140.984 200.652 141.1L197.867 141.344L196.784 155.173ZM222.484 134.377L220.663 157.898L215.06 158.388L216.88 134.867L222.484 134.377ZM238.924 139.988C238.91 139.13 238.626 138.489 238.072 138.066C237.525 137.643 236.705 137.479 235.611 137.574C234.886 137.638 234.275 137.786 233.779 138.02C233.281 138.246 232.9 138.538 232.635 138.895C232.369 139.246 232.217 139.639 232.179 140.076C232.141 140.422 232.186 140.722 232.315 140.977C232.444 141.232 232.649 141.449 232.931 141.63C233.221 141.81 233.572 141.958 233.985 142.074C234.406 142.189 234.874 142.281 235.39 142.35L237.331 142.637C238.455 142.789 239.438 143.038 240.282 143.382C241.133 143.719 241.837 144.155 242.393 144.692C242.949 145.221 243.354 145.851 243.608 146.582C243.862 147.313 243.95 148.149 243.873 149.091C243.76 150.576 243.292 151.883 242.471 153.012C241.657 154.141 240.542 155.048 239.127 155.735C237.72 156.421 236.05 156.848 234.118 157.017C232.186 157.186 230.519 157.039 229.117 156.576C227.722 156.105 226.671 155.303 225.964 154.171C225.256 153.039 224.963 151.559 225.085 149.731L230.439 149.263C230.422 150.017 230.57 150.631 230.886 151.106C231.208 151.579 231.672 151.919 232.275 152.125C232.879 152.331 233.592 152.398 234.414 152.326C235.169 152.26 235.821 152.1 236.369 151.847C236.925 151.593 237.356 151.27 237.664 150.878C237.98 150.485 238.155 150.052 238.189 149.577C238.227 149.14 238.123 148.773 237.876 148.475C237.637 148.177 237.251 147.933 236.717 147.744C236.191 147.554 235.508 147.401 234.669 147.284L232.299 146.921C230.341 146.621 228.823 146.001 227.745 145.061C226.674 144.121 226.205 142.758 226.338 140.975C226.453 139.512 226.939 138.2 227.795 137.037C228.659 135.874 229.797 134.931 231.209 134.206C232.628 133.474 234.221 133.03 235.987 132.876C237.783 132.719 239.319 132.892 240.595 133.397C241.878 133.893 242.839 134.668 243.479 135.722C244.126 136.768 244.396 138.034 244.29 139.518L238.924 139.988ZM247.138 155.581L248.959 132.06L258.536 131.222C260.272 131.071 261.746 131.28 262.96 131.851C264.173 132.421 265.074 133.289 265.663 134.455C266.252 135.62 266.484 137.01 266.359 138.626C266.243 140.256 265.788 141.706 264.994 142.977C264.208 144.247 263.142 145.272 261.795 146.052C260.449 146.831 258.882 147.299 257.093 147.455L251.195 147.971L251.545 143.492L256.413 143.066C257.265 142.992 257.988 142.78 258.581 142.432C259.182 142.083 259.648 141.627 259.979 141.066C260.31 140.505 260.505 139.86 260.563 139.133C260.613 138.406 260.514 137.791 260.264 137.288C260.014 136.778 259.613 136.402 259.059 136.162C258.514 135.92 257.822 135.836 256.984 135.91L254.222 136.151L252.742 155.091L247.138 155.581ZM291.627 140.373C291.423 142.908 290.777 145.09 289.69 146.919C288.61 148.74 287.225 150.169 285.537 151.207C283.855 152.243 282.003 152.85 279.981 153.027C277.845 153.214 275.955 152.9 274.309 152.086C272.664 151.272 271.407 149.987 270.538 148.23C269.677 146.472 269.348 144.277 269.551 141.643C269.74 139.109 270.374 136.925 271.453 135.089C272.54 133.252 273.931 131.811 275.626 130.765C277.329 129.711 279.199 129.095 281.237 128.917C283.357 128.732 285.237 129.05 286.875 129.872C288.522 130.694 289.775 131.988 290.637 133.753C291.499 135.517 291.829 137.724 291.627 140.373ZM285.966 140.207C286.072 138.73 285.965 137.504 285.644 136.528C285.33 135.551 284.819 134.839 284.111 134.392C283.402 133.937 282.515 133.756 281.451 133.849C280.274 133.952 279.235 134.336 278.335 135C277.442 135.656 276.727 136.563 276.189 137.72C275.651 138.87 275.325 140.233 275.212 141.809C275.084 143.303 275.184 144.53 275.512 145.49C275.846 146.45 276.375 147.149 277.098 147.587C277.82 148.019 278.706 148.188 279.755 148.096C280.925 147.994 281.953 147.619 282.839 146.971C283.725 146.323 284.434 145.428 284.965 144.287C285.504 143.145 285.838 141.785 285.966 140.207ZM308.756 133.878C308.742 133.02 308.458 132.38 307.904 131.957C307.357 131.533 306.537 131.369 305.443 131.465C304.718 131.528 304.108 131.677 303.611 131.91C303.113 132.136 302.732 132.428 302.467 132.786C302.201 133.136 302.049 133.53 302.011 133.967C301.973 134.312 302.018 134.612 302.147 134.867C302.276 135.122 302.481 135.34 302.763 135.521C303.053 135.701 303.404 135.849 303.817 135.964C304.238 136.08 304.706 136.172 305.222 136.241L307.163 136.527C308.287 136.68 309.27 136.928 310.114 137.273C310.965 137.609 311.669 138.046 312.225 138.583C312.781 139.112 313.186 139.742 313.44 140.472C313.694 141.203 313.782 142.04 313.705 142.982C313.592 144.467 313.124 145.774 312.303 146.903C311.489 148.031 310.374 148.939 308.959 149.625C307.552 150.311 305.882 150.738 303.95 150.908C302.018 151.077 300.351 150.93 298.949 150.467C297.554 149.996 296.503 149.194 295.796 148.062C295.088 146.93 294.795 145.45 294.917 143.622L300.271 143.153C300.254 143.908 300.402 144.522 300.718 144.996C301.04 145.47 301.504 145.81 302.107 146.015C302.711 146.221 303.424 146.288 304.246 146.216C305.001 146.15 305.653 145.99 306.201 145.737C306.757 145.483 307.188 145.16 307.496 144.768C307.812 144.376 307.987 143.942 308.021 143.468C308.059 143.031 307.955 142.663 307.708 142.366C307.469 142.067 307.083 141.823 306.549 141.634C306.023 141.445 305.34 141.291 304.501 141.175L302.131 140.812C300.173 140.511 298.655 139.891 297.577 138.952C296.506 138.011 296.037 136.649 296.17 134.865C296.285 133.403 296.771 132.09 297.627 130.928C298.491 129.765 299.629 128.821 301.041 128.097C302.46 127.364 304.053 126.921 305.819 126.766C307.615 126.609 309.151 126.783 310.427 127.287C311.71 127.783 312.671 128.559 313.311 129.613C313.958 130.659 314.228 131.924 314.122 133.409L308.756 133.878ZM324.395 125.461L322.574 148.982L316.97 149.472L318.791 125.951L324.395 125.461ZM327.739 129.754L328.11 125.136L347.706 123.421L347.334 128.039L340.304 128.654L338.855 147.557L333.331 148.04L334.78 129.138L327.739 129.754ZM357.003 122.608L355.182 146.129L349.578 146.619L351.399 123.098L357.003 122.608ZM366.741 121.756L370.592 138.529L370.785 138.513L377.303 120.832L383.574 120.283L373.931 144.488L366.471 145.141L360.469 122.304L366.741 121.756ZM406.604 130.314C406.4 132.849 405.754 135.031 404.667 136.86C403.587 138.681 402.202 140.11 400.514 141.147C398.832 142.184 396.981 142.791 394.958 142.968C392.822 143.155 390.932 142.841 389.286 142.027C387.641 141.213 386.384 139.927 385.515 138.171C384.654 136.413 384.325 134.218 384.528 131.584C384.717 129.05 385.351 126.865 386.43 125.029C387.517 123.193 388.908 121.752 390.603 120.706C392.306 119.652 394.176 119.036 396.214 118.858C398.334 118.672 400.214 118.991 401.853 119.813C403.499 120.635 404.752 121.928 405.614 123.693C406.476 125.458 406.806 127.665 406.604 130.314ZM400.943 130.148C401.049 128.671 400.942 127.444 400.621 126.469C400.307 125.492 399.797 124.78 399.088 124.333C398.379 123.878 397.493 123.697 396.428 123.79C395.251 123.893 394.212 124.276 393.312 124.941C392.419 125.597 391.704 126.503 391.166 127.661C390.628 128.811 390.302 130.174 390.189 131.75C390.062 133.244 390.161 134.471 390.489 135.431C390.824 136.391 391.352 137.09 392.075 137.528C392.797 137.959 393.683 138.129 394.732 138.037C395.902 137.935 396.93 137.56 397.816 136.912C398.702 136.264 399.411 135.369 399.942 134.228C400.481 133.086 400.815 131.726 400.943 130.148ZM287.768 165.806L285.947 189.327L281.193 189.743L273.037 176.974L272.879 176.987L271.819 190.563L266.216 191.054L268.036 167.533L272.859 167.111L280.956 179.863L281.148 179.846L282.176 166.296L287.768 165.806ZM295.442 188.497L289.42 189.023L299.062 164.818L306.523 164.166L312.524 187.002L306.502 187.529L302.438 170.409L302.256 170.425L295.442 188.497ZM295.368 179.309L307.956 178.208L307.604 182.527L295.016 183.629L295.368 179.309ZM299.837 162.458L296.972 162.697C297.086 161.136 297.536 159.925 298.32 159.066C299.104 158.206 300.02 157.73 301.069 157.639C301.628 157.59 302.1 157.64 302.486 157.789C302.871 157.93 303.209 158.106 303.501 158.316C303.793 158.526 304.068 158.711 304.326 158.871C304.582 159.023 304.858 159.087 305.152 159.061C305.582 159.023 305.912 158.835 306.141 158.495C306.376 158.148 306.516 157.706 306.561 157.17L309.383 156.957C309.244 158.505 308.78 159.713 307.989 160.581C307.205 161.448 306.293 161.935 305.253 162.041C304.679 162.091 304.204 162.041 303.826 161.892C303.447 161.743 303.12 161.566 302.844 161.362C302.574 161.15 302.315 160.963 302.065 160.803C301.815 160.642 301.532 160.576 301.215 160.603C300.837 160.636 300.522 160.816 300.269 161.142C300.024 161.468 299.88 161.906 299.837 162.458ZM337.655 173.488C337.451 176.023 336.805 178.205 335.718 180.034C334.638 181.854 333.253 183.284 331.565 184.321C329.884 185.358 328.032 185.965 326.009 186.142C323.873 186.329 321.983 186.015 320.337 185.201C318.692 184.386 317.435 183.101 316.566 181.344C315.705 179.587 315.376 177.391 315.579 174.757C315.768 172.224 316.402 170.039 317.481 168.203C318.568 166.367 319.959 164.925 321.654 163.88C323.357 162.826 325.227 162.21 327.265 162.031C329.385 161.846 331.265 162.164 332.904 162.987C334.55 163.809 335.803 165.102 336.665 166.867C337.527 168.632 337.857 170.839 337.655 173.488ZM331.994 173.321C332.101 171.844 331.993 170.618 331.672 169.642C331.359 168.666 330.848 167.954 330.139 167.506C329.43 167.051 328.544 166.87 327.48 166.963C326.302 167.066 325.263 167.45 324.363 168.114C323.47 168.77 322.755 169.677 322.217 170.834C321.679 171.984 321.354 173.347 321.24 174.924C321.113 176.418 321.212 177.645 321.54 178.605C321.875 179.564 322.403 180.263 323.126 180.702C323.848 181.133 324.734 181.303 325.783 181.211C326.953 181.109 327.981 180.733 328.867 180.085C329.753 179.438 330.462 178.543 330.994 177.401C331.532 176.259 331.866 174.899 331.994 173.321ZM186.751 235.147L188.572 211.626L204.737 210.212L204.366 214.83L193.804 215.754L193.45 220.576L203.186 219.724L202.815 224.354L193.079 225.205L192.727 230.039L203.289 229.115L202.917 233.733L186.751 235.147ZM228.935 208.095L227.114 231.616L222.359 232.032L214.204 219.262L214.046 219.276L212.986 232.852L207.383 233.342L209.203 209.821L214.026 209.399L222.122 222.151L222.315 222.134L223.342 208.584L228.935 208.095ZM253.779 214.385L248.187 214.875C248.165 214.283 248.063 213.764 247.879 213.316C247.695 212.861 247.433 212.48 247.095 212.175C246.756 211.863 246.348 211.64 245.873 211.507C245.397 211.373 244.854 211.333 244.243 211.387C243.073 211.489 242.038 211.873 241.138 212.537C240.238 213.201 239.515 214.109 238.969 215.259C238.423 216.409 238.089 217.762 237.967 219.316C237.862 220.816 237.974 222.05 238.302 223.017C238.637 223.984 239.163 224.687 239.878 225.126C240.593 225.558 241.467 225.729 242.501 225.638C243.172 225.58 243.788 225.446 244.348 225.237C244.914 225.02 245.418 224.737 245.859 224.386C246.3 224.036 246.671 223.627 246.972 223.16C247.28 222.684 247.505 222.166 247.646 221.606L253.284 221.113C253.094 222.156 252.722 223.212 252.169 224.279C251.623 225.338 250.903 226.318 250.008 227.217C249.113 228.117 248.05 228.868 246.817 229.47C245.585 230.072 244.187 230.442 242.625 230.578C240.489 230.765 238.606 230.447 236.975 229.624C235.351 228.8 234.117 227.509 233.271 225.75C232.432 223.983 232.11 221.783 232.306 219.15C232.501 216.601 233.134 214.412 234.207 212.584C235.286 210.756 236.667 209.323 238.348 208.287C240.036 207.249 241.881 206.643 243.881 206.468C245.33 206.341 246.649 206.423 247.838 206.715C249.034 206.998 250.068 207.478 250.941 208.154C251.813 208.823 252.493 209.68 252.98 210.725C253.474 211.769 253.74 212.989 253.779 214.385ZM279.569 215.711C279.365 218.246 278.719 220.428 277.632 222.257C276.552 224.078 275.167 225.507 273.479 226.544C271.797 227.581 269.946 228.188 267.923 228.365C265.787 228.552 263.897 228.238 262.251 227.424C260.606 226.61 259.349 225.324 258.48 223.567C257.619 221.81 257.29 219.614 257.493 216.981C257.682 214.447 258.316 212.262 259.395 210.426C260.482 208.59 261.873 207.149 263.568 206.103C265.271 205.049 267.141 204.433 269.179 204.255C271.299 204.069 273.179 204.388 274.818 205.21C276.464 206.032 277.717 207.325 278.579 209.09C279.441 210.855 279.771 213.062 279.569 215.711ZM273.908 215.545C274.014 214.067 273.907 212.841 273.586 211.865C273.273 210.889 272.762 210.177 272.053 209.729C271.344 209.274 270.458 209.093 269.393 209.187C268.216 209.29 267.177 209.673 266.277 210.337C265.384 210.994 264.669 211.9 264.131 213.058C263.593 214.207 263.267 215.57 263.154 217.147C263.027 218.641 263.126 219.868 263.454 220.828C263.789 221.787 264.317 222.486 265.04 222.925C265.762 223.356 266.648 223.526 267.697 223.434C268.867 223.332 269.895 222.957 270.781 222.309C271.667 221.661 272.376 220.766 272.907 219.625C273.446 218.482 273.78 217.122 273.908 215.545ZM304.464 201.487L302.643 225.008L297.888 225.424L289.733 212.654L289.575 212.668L288.515 226.244L282.912 226.734L284.732 203.213L289.555 202.791L297.651 215.543L297.844 215.526L298.871 201.976L304.464 201.487ZM307.813 205.78L308.185 201.161L327.781 199.447L327.409 204.065L320.379 204.68L318.93 223.583L313.406 224.066L314.855 205.164L307.813 205.78ZM329.653 222.645L331.474 199.124L341.051 198.286C342.786 198.134 344.263 198.321 345.48 198.845C346.696 199.363 347.601 200.181 348.193 201.3C348.784 202.412 349.017 203.772 348.892 205.38C348.775 207.002 348.321 208.414 347.529 209.617C346.743 210.811 345.679 211.764 344.334 212.474C342.997 213.185 341.445 213.617 339.679 213.771L333.623 214.301L333.984 209.821L338.999 209.382C339.836 209.309 340.551 209.136 341.143 208.864C341.735 208.584 342.192 208.202 342.515 207.717C342.844 207.224 343.038 206.614 343.096 205.887C343.146 205.16 343.042 204.572 342.782 204.123C342.529 203.666 342.124 203.344 341.568 203.157C341.019 202.962 340.329 202.901 339.499 202.973L336.737 203.215L335.257 222.155L329.653 222.645ZM343.533 210.754L348.479 220.998L342.366 221.533L337.545 211.277L343.533 210.754ZM356.98 220.254L350.958 220.781L360.601 196.576L368.061 195.923L374.063 218.76L368.04 219.286L363.976 202.166L363.795 202.182L356.98 220.254ZM356.906 211.066L369.495 209.965L369.143 214.285L356.554 215.386L356.906 211.066ZM386.209 217.697L377.515 218.457L379.336 194.937L387.769 194.199C390.124 193.993 392.128 194.3 393.782 195.121C395.442 195.934 396.675 197.203 397.48 198.927C398.292 200.643 398.601 202.746 398.408 205.234C398.223 207.638 397.612 209.737 396.575 211.531C395.546 213.325 394.149 214.751 392.387 215.81C390.623 216.862 388.564 217.491 386.209 217.697ZM383.482 213.122L386.142 212.889C387.44 212.775 388.567 212.441 389.522 211.886C390.484 211.323 391.248 210.492 391.814 209.393C392.378 208.286 392.726 206.868 392.856 205.138C392.985 203.484 392.861 202.198 392.484 201.281C392.114 200.355 391.496 199.724 390.63 199.39C389.772 199.046 388.678 198.933 387.35 199.049L384.565 199.293L383.482 213.122ZM424.525 203.029C424.321 205.564 423.676 207.746 422.588 209.575C421.508 211.396 420.124 212.825 418.435 213.862C416.754 214.899 414.902 215.506 412.879 215.683C410.744 215.87 408.853 215.556 407.208 214.742C405.562 213.928 404.305 212.642 403.437 210.885C402.576 209.128 402.247 206.932 402.45 204.299C402.639 201.765 403.273 199.58 404.352 197.744C405.438 195.908 406.829 194.467 408.525 193.421C410.227 192.367 412.097 191.751 414.135 191.573C416.256 191.387 418.135 191.706 419.774 192.528C421.42 193.35 422.674 194.643 423.535 196.408C424.397 198.173 424.727 200.38 424.525 203.029ZM418.864 202.862C418.971 201.385 418.863 200.159 418.542 199.183C418.229 198.207 417.718 197.495 417.009 197.047C416.3 196.592 415.414 196.411 414.35 196.504C413.172 196.607 412.134 196.991 411.234 197.655C410.34 198.312 409.625 199.218 409.088 200.376C408.549 201.525 408.224 202.888 408.111 204.465C407.983 205.959 408.083 207.186 408.41 208.146C408.745 209.105 409.274 209.804 409.996 210.243C410.719 210.674 411.604 210.844 412.653 210.752C413.823 210.65 414.851 210.275 415.737 209.627C416.624 208.979 417.332 208.084 417.864 206.942C418.403 205.8 418.736 204.44 418.864 202.862Z" fill="#16A34A"/>
</g>
<circle cx="424" cy="307" r="3.5" stroke="black"/>
<circle cx="423.5" cy="326.5" r="3" stroke="black"/>
<circle cx="423.5" cy="344.5" r="3" stroke="black"/>
<path d="M156.5 305L157 75" stroke="black" stroke-opacity="0.5" stroke-width="4"/>
<path d="M137.5 177.709V336.5" stroke="black" stroke-opacity="0.45" stroke-width="4"/>
<path d="M122 341.5V417" stroke="black" stroke-opacity="0.45" stroke-width="4"/>
<path d="M164 333L415 300" stroke="black" stroke-opacity="0.45" stroke-width="2"/>
<path d="M125 177V189.5L126 191.5L131 193.5M133 195V178.5L126 176.5L124 177L130 188L130.5 190.5V180L128.5 178.5L127.5 190" stroke="black" stroke-opacity="0.6" stroke-width="5"/>
<path d="M125 270.5V283L126 285L131 287M133 288.5V272L126 270L124 270.5L130 281.5L130.5 284V273.5L128.5 272L127.5 283.5" stroke="black" stroke-opacity="0.6" stroke-width="5"/>
<path d="M142 179V196.5" stroke="black" stroke-opacity="0.25" stroke-width="5"/>
<defs>
<filter id="filter0_d_3_52" x="174.246" y="116.983" width="255.935" height="126.481" filterUnits="userSpaceOnUse" color-interpolation-filters="sRGB">
<feFlood flood-opacity="0" result="BackgroundImageFix"/>
<feColorMatrix in="SourceAlpha" type="matrix" values="0 0 0 0 0 0 0 0 0 0 0 0 0 0 0 0 0 0 127 0" result="hardAlpha"/>
<feOffset dy="4"/>
<feGaussianBlur stdDeviation="2"/>
<feComposite in2="hardAlpha" operator="out"/>
<feColorMatrix type="matrix" values="0 0 0 0 0 0 0 0 0 0 0 0 0 0 0 0 0 0 0.25 0"/>
<feBlend mode="normal" in2="BackgroundImageFix" result="effect1_dropShadow_3_52"/>
<feBlend mode="normal" in="SourceGraphic" in2="effect1_dropShadow_3_52" result="shape"/>
</filter>
</defs>
</svg>
