<svg width="750" height="449" viewBox="0 0 750 449" fill="none" xmlns="http://www.w3.org/2000/svg">
<mask id="mask0_2012_2075" style="mask-type:alpha" maskUnits="userSpaceOnUse" x="-12" y="15" width="745" height="359">
<rect x="-11.3435" y="15.9556" width="744.247" height="357.697" fill="#D9D9D9"/>
</mask>
<g mask="url(#mask0_2012_2075)">
</g>
<path d="M616.164 404.029C604.435 401.33 592.533 399.15 580.462 397.681C525.698 391.018 399.457 388.703 338.27 390.753C258.841 393.415 7.12585 438.032 -11.8921 397.222C-30.9111 356.411 -25.3176 57.4324 11.601 51.2227C48.5197 45.012 179.411 69.4516 256.603 71.2265C333.795 73.0014 518.386 49.4487 594.46 46.7869C670.534 44.125 677.246 53.8845 695.146 106.228C713.045 158.571 732.064 330.684 728.707 370.607C725.855 404.541 644.598 410.574 616.164 404.029Z" fill="#49B02D" fill-opacity="0.5"/>
<path opacity="0.7" d="M616.164 404.029C604.435 401.33 592.533 399.15 580.462 397.681C525.698 391.018 399.457 388.703 338.27 390.753C258.841 393.415 7.12585 438.032 -11.8921 397.222C-30.9111 356.411 -25.3176 57.4324 11.601 51.2227C48.5197 45.012 179.411 69.4516 256.603 71.2265C333.795 73.0014 518.386 49.4487 594.46 46.7869C670.534 44.125 677.246 53.8845 695.146 106.228C713.045 158.571 732.064 330.684 728.707 370.607C725.855 404.541 644.598 410.574 616.164 404.029Z" fill="white"/>
<path d="M129.99 63.668C129.99 63.668 126.122 48.9783 105.233 47.5796C84.3436 46.1808 83.5701 58.7715 76.6072 62.9687C69.6444 67.1659 65.0022 56.6733 54.9442 60.8705C44.8862 65.0678 47.2079 70.6637 41.7921 72.0624C36.3763 73.4612 37.9234 69.9643 30.187 71.3631C22.4507 72.7618 23.2242 75.5603 19.3555 77.6584C15.4868 79.7565 16.2604 77.6584 11.6192 78.3578C6.97695 79.0572 2.33472 82.555 2.33472 82.555H164.032C164.032 82.555 159.199 64.9927 152.427 62.9687C137.846 58.6118 132.312 69.9634 129.99 63.668Z" stroke="#263238" stroke-miterlimit="10"/>
<path d="M493.299 142.048C493.299 142.048 490.552 131.617 475.719 130.623C460.886 129.63 460.336 138.571 455.391 141.552C450.447 144.532 447.15 137.081 440.008 140.061C432.866 143.042 434.514 147.016 430.668 148.01C426.822 149.003 427.921 146.519 422.427 147.513C416.934 148.507 417.483 150.493 414.736 151.984C411.988 153.474 412.539 151.984 409.241 152.48C405.945 152.976 402.649 155.46 402.649 155.46H517.473C517.473 155.46 514.042 142.989 509.233 141.552C498.878 138.458 494.947 146.519 493.299 142.048Z" stroke="#263238" stroke-miterlimit="10"/>
<path d="M431.76 60.4117C431.76 60.4117 425.682 37.3314 392.861 35.1342C360.041 32.936 358.825 52.7185 347.885 59.3131C336.945 65.9076 329.651 49.4218 313.848 56.0163C298.046 62.6108 301.692 71.4025 293.183 73.6007C284.675 75.7989 287.106 70.3039 274.95 72.5011C262.794 74.6993 264.01 79.0956 257.932 82.3924C251.854 85.6892 253.07 82.3924 245.776 83.492C238.482 84.5906 231.189 90.0865 231.189 90.0865H485.244C485.244 90.0865 477.651 62.4925 467.01 59.3131C444.102 52.4665 435.407 70.3029 431.76 60.4117Z" stroke="#263238" stroke-miterlimit="10"/>
<path d="M592.477 55.0713C604.615 52.505 612.153 41.5285 609.315 30.5544C606.476 19.5804 594.336 12.7646 582.198 15.3309C570.061 17.8972 562.522 28.8737 565.361 39.8477C568.199 50.8218 580.34 57.6376 592.477 55.0713Z" fill="#49B02D" fill-opacity="0.5" stroke="#263238" stroke-miterlimit="10"/>
<path d="M587.359 -0.293457V9.50163" stroke="#263238" stroke-miterlimit="10"/>
<path d="M587.359 60.9253V70.7204" stroke="#263238" stroke-miterlimit="10"/>
<path d="M626.632 35.2129H615.798" stroke="#263238" stroke-miterlimit="10"/>
<path d="M558.921 35.2129H548.087" stroke="#263238" stroke-miterlimit="10"/>
<path d="M615.129 10.1057L607.469 17.0321" stroke="#263238" stroke-miterlimit="10"/>
<path d="M567.251 53.3948L559.59 60.3202" stroke="#263238" stroke-miterlimit="10"/>
<path d="M559.59 10.1057L567.251 17.0321" stroke="#263238" stroke-miterlimit="10"/>
<path d="M607.469 53.3948L615.129 60.3202" stroke="#263238" stroke-miterlimit="10"/>
<path d="M724.3 228.007C724.3 265.084 700.041 295.141 670.116 295.141C640.191 295.141 615.932 265.084 615.932 228.007C615.932 190.929 640.191 63.4968 670.116 63.4968C700.041 63.4968 724.3 190.929 724.3 228.007Z" fill="#49B02D"/>
<path d="M700.498 247.404L684.091 252.891L687.384 243.961L679.54 254.413L671.708 257.032L671.148 227.709L699.652 193.471L684.376 207.282L686.96 197.679L679.653 211.553L670.989 219.385L670.116 173.573L667.011 240.388L640 214.509L654.837 232.744L640.846 231.339L658.128 236.79L666.69 247.312L665.193 279.526L655.231 273.415L664.882 286.194L660.307 381.096H674.141L671.797 261.71L700.498 247.404Z" fill="#878787"/>
<path d="M699.925 173.718C699.925 173.718 700.426 178.219 697.705 181.523C694.985 184.827 690.071 185.683 690.071 185.683C690.071 185.683 689.57 181.183 692.291 177.879C695.012 174.574 699.925 173.718 699.925 173.718Z" fill="white"/>
<path d="M716.256 194.464C716.256 194.464 716.757 198.965 714.037 202.268C711.316 205.573 706.403 206.429 706.403 206.429C706.403 206.429 705.901 201.928 708.622 198.624C711.343 195.32 716.256 194.464 716.256 194.464Z" fill="white"/>
<path d="M716.249 234.855C716.249 234.855 715.045 239.245 711.253 241.528C707.461 243.811 702.516 243.122 702.516 243.122C702.516 243.122 703.72 238.732 707.512 236.449C711.304 234.166 716.249 234.855 716.249 234.855Z" fill="white"/>
<path d="M626.559 234.855C626.559 234.855 627.762 239.245 631.555 241.528C635.348 243.811 640.292 243.122 640.292 243.122C640.292 243.122 639.089 238.732 635.295 236.449C631.504 234.166 626.559 234.855 626.559 234.855Z" fill="white"/>
<path d="M697.387 218.088C697.387 218.088 697.889 222.59 695.167 225.893C692.446 229.198 687.533 230.054 687.533 230.054C687.533 230.054 687.031 225.553 689.752 222.249C692.474 218.945 697.387 218.088 697.387 218.088Z" fill="white"/>
<path d="M693.156 151.15C693.156 151.15 693.657 155.651 690.935 158.955C688.215 162.26 683.302 163.116 683.302 163.116C683.302 163.116 682.801 158.616 685.522 155.311C688.243 152.007 693.156 151.15 693.156 151.15Z" fill="white"/>
<path d="M683.426 168.363C683.426 168.363 683.927 172.863 681.206 176.167C678.485 179.472 673.572 180.328 673.572 180.328C673.572 180.328 673.071 175.827 675.791 172.523C678.513 169.219 683.426 168.363 683.426 168.363Z" fill="white"/>
<path d="M706.526 155.831C706.526 155.831 707.027 160.332 704.306 163.636C701.586 166.94 696.672 167.796 696.672 167.796C696.672 167.796 696.171 163.295 698.892 159.991C701.612 156.687 706.526 155.831 706.526 155.831Z" fill="white"/>
<path d="M631.462 155.831C631.462 155.831 630.961 160.332 633.681 163.636C636.402 166.94 641.315 167.796 641.315 167.796C641.315 167.796 641.816 163.295 639.095 159.991C636.374 156.687 631.462 155.831 631.462 155.831Z" fill="white"/>
<path d="M695.271 130.113C695.271 130.113 695.772 134.614 693.051 137.917C690.331 141.222 685.417 142.078 685.417 142.078C685.417 142.078 684.916 137.578 687.638 134.273C690.358 130.969 695.271 130.113 695.271 130.113Z" fill="white"/>
<path d="M690.489 107.764C690.489 107.764 692.225 112.007 690.51 115.823C688.794 119.639 684.277 121.583 684.277 121.583C684.277 121.583 682.541 117.341 684.256 113.525C685.973 109.709 690.489 107.764 690.489 107.764Z" fill="white"/>
<path d="M656.225 101.925C656.225 101.925 660.657 104.024 662.21 107.897C663.764 111.77 661.851 115.949 661.851 115.949C661.851 115.949 657.418 113.85 655.865 109.978C654.311 106.105 656.225 101.925 656.225 101.925Z" fill="white"/>
<path d="M672.203 128.648C672.203 128.648 675.36 132.158 675.1 136.27C674.838 140.383 671.257 143.542 671.257 143.542C671.257 143.542 668.1 140.032 668.361 135.92C668.622 131.806 672.203 128.648 672.203 128.648Z" fill="white"/>
<path d="M671.358 88.8677C671.358 88.8677 674.515 92.3771 674.253 96.4896C673.991 100.602 670.411 103.761 670.411 103.761C670.411 103.761 667.254 100.252 667.514 96.1394C667.776 92.0259 671.358 88.8677 671.358 88.8677Z" fill="white"/>
<path d="M635.497 173.718C635.497 173.718 634.995 178.219 637.716 181.523C640.437 184.827 645.35 185.683 645.35 185.683C645.35 185.683 645.851 181.183 643.13 177.879C640.409 174.574 635.497 173.718 635.497 173.718Z" fill="white"/>
<path d="M626.189 198.198C626.189 198.198 625.688 202.699 628.409 206.003C631.13 209.307 636.043 210.163 636.043 210.163C636.043 210.163 636.545 205.662 633.824 202.359C631.101 199.054 626.189 198.198 626.189 198.198Z" fill="white"/>
<path d="M650.895 207.086C650.895 207.086 650.394 211.587 653.114 214.891C655.835 218.195 660.748 219.051 660.748 219.051C660.748 219.051 661.25 214.55 658.528 211.247C655.808 207.942 650.895 207.086 650.895 207.086Z" fill="white"/>
<path d="M657.65 173.166C657.65 173.166 655.744 177.349 657.305 181.219C658.866 185.089 663.302 187.181 663.302 187.181C663.302 187.181 665.208 182.998 663.647 179.128C662.086 175.258 657.65 173.166 657.65 173.166Z" fill="white"/>
<path d="M640.155 263.427C640.155 263.427 645.157 263.51 648.576 260.788C651.995 258.065 652.537 253.568 652.537 253.568C652.537 253.568 647.534 253.485 644.115 256.209C640.696 258.93 640.155 263.427 640.155 263.427Z" fill="white"/>
<path d="M688.157 258.48C688.157 258.48 689.516 262.833 693.388 265.005C697.259 267.177 702.176 266.345 702.176 266.345C702.176 266.345 700.818 261.992 696.946 259.82C693.075 257.648 688.157 258.48 688.157 258.48Z" fill="white"/>
<path d="M645.735 151.15C645.735 151.15 645.234 155.651 647.955 158.955C650.677 162.26 655.589 163.116 655.589 163.116C655.589 163.116 656.09 158.616 653.369 155.311C650.648 152.007 645.735 151.15 645.735 151.15Z" fill="white"/>
<path d="M645.649 131.259C645.649 131.259 645.148 135.76 647.87 139.064C650.59 142.368 655.504 143.225 655.504 143.225C655.504 143.225 656.005 138.723 653.284 135.42C650.563 132.115 645.649 131.259 645.649 131.259Z" fill="white"/>
<path d="M356.858 257.997C356.858 287.811 337.351 311.979 313.289 311.979C289.226 311.979 269.719 287.81 269.719 257.997C269.719 228.183 289.225 125.715 313.289 125.715C337.352 125.715 356.858 228.183 356.858 257.997Z" fill="#49B02D"/>
<path d="M337.719 273.595L324.526 278.006L327.174 270.827L320.866 279.231L314.569 281.337L314.119 257.758L337.039 230.227L324.755 241.332L326.833 233.61L320.957 244.766L313.992 251.065L313.289 214.227L310.793 267.954L289.072 247.144L301.003 261.807L289.753 260.677L303.65 265.06L310.534 273.521L309.33 299.424L301.319 294.51L309.081 304.786L305.401 381.096H316.525L314.64 285.098L337.719 273.595Z" fill="#878787"/>
<path d="M337.258 214.343C337.258 214.343 337.662 217.962 335.474 220.619C333.285 223.276 329.336 223.964 329.336 223.964C329.336 223.964 328.933 220.345 331.121 217.688C333.308 215.032 337.258 214.343 337.258 214.343Z" fill="white"/>
<path d="M350.39 231.025C350.39 231.025 350.794 234.644 348.605 237.301C346.417 239.958 342.467 240.647 342.467 240.647C342.467 240.647 342.063 237.028 344.252 234.371C346.44 231.714 350.39 231.025 350.39 231.025Z" fill="white"/>
<path d="M350.385 263.504C350.385 263.504 349.417 267.035 346.367 268.87C343.318 270.707 339.342 270.153 339.342 270.153C339.342 270.153 340.31 266.622 343.359 264.787C346.409 262.95 350.385 263.504 350.385 263.504Z" fill="white"/>
<path d="M278.265 263.504C278.265 263.504 279.233 267.035 282.283 268.87C285.332 270.707 289.308 270.153 289.308 270.153C289.308 270.153 288.34 266.622 285.29 264.787C282.241 262.95 278.265 263.504 278.265 263.504Z" fill="white"/>
<path d="M335.218 250.022C335.218 250.022 335.621 253.641 333.432 256.298C331.245 258.955 327.294 259.644 327.294 259.644C327.294 259.644 326.891 256.025 329.08 253.368C331.267 250.711 335.218 250.022 335.218 250.022Z" fill="white"/>
<path d="M331.815 196.197C331.815 196.197 332.218 199.816 330.03 202.473C327.842 205.13 323.891 205.818 323.891 205.818C323.891 205.818 323.488 202.199 325.676 199.542C327.865 196.885 331.815 196.197 331.815 196.197Z" fill="white"/>
<path d="M323.991 210.037C323.991 210.037 324.395 213.656 322.206 216.313C320.017 218.97 316.068 219.658 316.068 219.658C316.068 219.658 315.665 216.039 317.853 213.382C320.041 210.726 323.991 210.037 323.991 210.037Z" fill="white"/>
<path d="M342.566 199.96C342.566 199.96 342.969 203.579 340.78 206.236C338.593 208.893 334.642 209.581 334.642 209.581C334.642 209.581 334.239 205.962 336.427 203.305C338.615 200.648 342.566 199.96 342.566 199.96Z" fill="white"/>
<path d="M282.207 199.96C282.207 199.96 281.804 203.579 283.993 206.236C286.18 208.893 290.131 209.581 290.131 209.581C290.131 209.581 290.534 205.962 288.345 203.305C286.157 200.648 282.207 199.96 282.207 199.96Z" fill="white"/>
<path d="M333.516 179.28C333.516 179.28 333.92 182.899 331.731 185.556C329.543 188.213 325.593 188.902 325.593 188.902C325.593 188.902 325.189 185.283 327.378 182.626C329.566 179.969 333.516 179.28 333.516 179.28Z" fill="white"/>
<path d="M329.671 161.311C329.671 161.311 331.067 164.722 329.687 167.791C328.307 170.86 324.674 172.423 324.674 172.423C324.674 172.423 323.279 169.012 324.659 165.943C326.039 162.874 329.671 161.311 329.671 161.311Z" fill="white"/>
<path d="M302.119 156.615C302.119 156.615 305.682 158.303 306.931 161.416C308.18 164.53 306.642 167.89 306.642 167.89C306.642 167.89 303.077 166.203 301.828 163.089C300.579 159.975 302.119 156.615 302.119 156.615Z" fill="white"/>
<path d="M314.968 178.103C314.968 178.103 317.506 180.924 317.297 184.232C317.086 187.539 314.207 190.079 314.207 190.079C314.207 190.079 311.668 187.257 311.879 183.95C312.087 180.642 314.968 178.103 314.968 178.103Z" fill="white"/>
<path d="M314.287 146.115C314.287 146.115 316.826 148.937 316.615 152.244C316.404 155.551 313.525 158.091 313.525 158.091C313.525 158.091 310.986 155.27 311.196 151.962C311.408 148.655 314.287 146.115 314.287 146.115Z" fill="white"/>
<path d="M285.451 214.343C285.451 214.343 285.048 217.962 287.237 220.619C289.424 223.276 293.375 223.964 293.375 223.964C293.375 223.964 293.778 220.345 291.59 217.688C289.402 215.032 285.451 214.343 285.451 214.343Z" fill="white"/>
<path d="M277.967 234.029C277.967 234.029 277.565 237.648 279.752 240.305C281.94 242.962 285.891 243.65 285.891 243.65C285.891 243.65 286.294 240.031 284.105 237.373C281.918 234.716 277.967 234.029 277.967 234.029Z" fill="white"/>
<path d="M297.833 241.175C297.833 241.175 297.43 244.794 299.618 247.451C301.806 250.108 305.757 250.796 305.757 250.796C305.757 250.796 306.16 247.177 303.971 244.52C301.784 241.863 297.833 241.175 297.833 241.175Z" fill="white"/>
<path d="M303.265 213.9C303.265 213.9 301.733 217.263 302.987 220.375C304.242 223.487 307.809 225.169 307.809 225.169C307.809 225.169 309.341 221.806 308.087 218.694C306.831 215.582 303.265 213.9 303.265 213.9Z" fill="white"/>
<path d="M289.198 286.479C289.198 286.479 293.219 286.545 295.969 284.356C298.718 282.166 299.153 278.55 299.153 278.55C299.153 278.55 295.13 278.484 292.382 280.673C289.633 282.863 289.198 286.479 289.198 286.479Z" fill="white"/>
<path d="M327.795 282.5C327.795 282.5 328.888 286.001 332.001 287.747C335.114 289.493 339.068 288.824 339.068 288.824C339.068 288.824 337.976 285.323 334.862 283.577C331.75 281.831 327.795 282.5 327.795 282.5Z" fill="white"/>
<path d="M293.685 196.197C293.685 196.197 293.281 199.816 295.47 202.473C297.659 205.13 301.608 205.818 301.608 205.818C301.608 205.818 302.01 202.199 299.823 199.542C297.635 196.885 293.685 196.197 293.685 196.197Z" fill="white"/>
<path d="M293.615 180.203C293.615 180.203 293.212 183.822 295.401 186.479C297.588 189.136 301.539 189.825 301.539 189.825C301.539 189.825 301.941 186.206 299.754 183.548C297.566 180.891 293.615 180.203 293.615 180.203Z" fill="white"/>
<path d="M255.754 282.873C255.754 306.662 240.189 325.947 220.989 325.947C201.789 325.947 186.224 306.662 186.224 282.873C186.224 259.084 201.789 177.323 220.989 177.323C240.189 177.323 255.754 259.085 255.754 282.873Z" fill="#49B02D"/>
<path d="M240.481 295.32L229.955 298.839L232.067 293.111L227.034 299.816L222.01 301.497L221.652 282.683L239.939 260.715L230.138 269.576L231.796 263.415L227.107 272.317L221.549 277.342L220.989 247.949L218.997 290.817L201.667 274.213L211.186 285.913L202.209 285.012L213.297 288.509L218.791 295.26L217.83 315.929L211.438 312.007L217.631 320.206L214.695 381.096H223.571L222.067 304.498L240.481 295.32Z" fill="#878787"/>
<path d="M240.114 248.042C240.114 248.042 240.436 250.93 238.69 253.05C236.944 255.17 233.792 255.72 233.792 255.72C233.792 255.72 233.471 252.832 235.217 250.712C236.963 248.591 240.114 248.042 240.114 248.042Z" fill="white"/>
<path d="M250.592 261.352C250.592 261.352 250.914 264.24 249.168 266.359C247.422 268.48 244.27 269.029 244.27 269.029C244.27 269.029 243.949 266.141 245.695 264.021C247.44 261.902 250.592 261.352 250.592 261.352Z" fill="white"/>
<path d="M250.588 287.268C250.588 287.268 249.816 290.084 247.382 291.549C244.949 293.015 241.776 292.572 241.776 292.572C241.776 292.572 242.549 289.755 244.982 288.29C247.415 286.826 250.588 287.268 250.588 287.268Z" fill="white"/>
<path d="M193.043 287.268C193.043 287.268 193.815 290.084 196.249 291.549C198.682 293.015 201.854 292.572 201.854 292.572C201.854 292.572 201.081 289.755 198.648 288.29C196.216 286.826 193.043 287.268 193.043 287.268Z" fill="white"/>
<path d="M238.485 276.51C238.485 276.51 238.807 279.398 237.06 281.519C235.314 283.639 232.163 284.188 232.163 284.188C232.163 284.188 231.842 281.3 233.588 279.181C235.334 277.06 238.485 276.51 238.485 276.51Z" fill="white"/>
<path d="M235.771 233.562C235.771 233.562 236.092 236.45 234.346 238.57C232.6 240.69 229.449 241.24 229.449 241.24C229.449 241.24 229.127 238.352 230.872 236.233C232.619 234.111 235.771 233.562 235.771 233.562Z" fill="white"/>
<path d="M229.528 244.606C229.528 244.606 229.85 247.494 228.104 249.613C226.358 251.733 223.206 252.283 223.206 252.283C223.206 252.283 222.885 249.395 224.631 247.276C226.376 245.155 229.528 244.606 229.528 244.606Z" fill="white"/>
<path d="M244.349 236.565C244.349 236.565 244.67 239.453 242.924 241.574C241.178 243.694 238.027 244.243 238.027 244.243C238.027 244.243 237.705 241.355 239.451 239.235C241.197 237.115 244.349 236.565 244.349 236.565Z" fill="white"/>
<path d="M196.188 236.565C196.188 236.565 195.867 239.453 197.613 241.574C199.359 243.694 202.51 244.243 202.51 244.243C202.51 244.243 202.832 241.355 201.086 239.235C199.34 237.115 196.188 236.565 196.188 236.565Z" fill="white"/>
<path d="M237.129 220.064C237.129 220.064 237.45 222.952 235.704 225.072C233.958 227.193 230.806 227.742 230.806 227.742C230.806 227.742 230.485 224.854 232.231 222.734C233.976 220.614 237.129 220.064 237.129 220.064Z" fill="white"/>
<path d="M234.06 205.726C234.06 205.726 235.174 208.448 234.073 210.896C232.971 213.345 230.073 214.592 230.073 214.592C230.073 214.592 228.959 211.871 230.06 209.422C231.163 206.973 234.06 205.726 234.06 205.726Z" fill="white"/>
<path d="M212.076 201.98C212.076 201.98 214.92 203.327 215.916 205.811C216.913 208.296 215.685 210.977 215.685 210.977C215.685 210.977 212.841 209.631 211.845 207.146C210.849 204.661 212.076 201.98 212.076 201.98Z" fill="white"/>
<path d="M222.328 219.125C222.328 219.125 224.354 221.376 224.186 224.015C224.018 226.654 221.72 228.681 221.72 228.681C221.72 228.681 219.694 226.43 219.862 223.791C220.03 221.151 222.328 219.125 222.328 219.125Z" fill="white"/>
<path d="M221.785 193.602C221.785 193.602 223.811 195.853 223.643 198.491C223.474 201.13 221.177 203.157 221.177 203.157C221.177 203.157 219.151 200.905 219.319 198.266C219.488 195.628 221.785 193.602 221.785 193.602Z" fill="white"/>
<path d="M198.777 248.042C198.777 248.042 198.455 250.93 200.2 253.05C201.946 255.17 205.099 255.72 205.099 255.72C205.099 255.72 205.42 252.832 203.674 250.712C201.928 248.591 198.777 248.042 198.777 248.042Z" fill="white"/>
<path d="M192.805 263.749C192.805 263.749 192.483 266.637 194.229 268.757C195.975 270.877 199.127 271.426 199.127 271.426C199.127 271.426 199.448 268.539 197.702 266.418C195.957 264.298 192.805 263.749 192.805 263.749Z" fill="white"/>
<path d="M208.656 269.451C208.656 269.451 208.335 272.339 210.081 274.459C211.827 276.579 214.978 277.128 214.978 277.128C214.978 277.128 215.3 274.24 213.554 272.12C211.809 270.001 208.656 269.451 208.656 269.451Z" fill="white"/>
<path d="M212.991 247.687C212.991 247.687 211.768 250.37 212.769 252.854C213.771 255.337 216.617 256.68 216.617 256.68C216.617 256.68 217.839 253.996 216.838 251.513C215.837 249.03 212.991 247.687 212.991 247.687Z" fill="white"/>
<path d="M201.766 305.599C201.766 305.599 204.976 305.652 207.169 303.905C209.363 302.158 209.709 299.273 209.709 299.273C209.709 299.273 206.5 299.22 204.306 300.967C202.112 302.714 201.766 305.599 201.766 305.599Z" fill="white"/>
<path d="M232.564 302.425C232.564 302.425 233.435 305.218 235.92 306.611C238.403 308.005 241.559 307.472 241.559 307.472C241.559 307.472 240.688 304.678 238.203 303.285C235.719 301.892 232.564 302.425 232.564 302.425Z" fill="white"/>
<path d="M205.346 233.562C205.346 233.562 205.024 236.45 206.77 238.57C208.516 240.69 211.668 241.24 211.668 241.24C211.668 241.24 211.989 238.352 210.243 236.233C208.498 234.111 205.346 233.562 205.346 233.562Z" fill="white"/>
<path d="M205.291 220.8C205.291 220.8 204.969 223.688 206.715 225.808C208.461 227.929 211.613 228.478 211.613 228.478C211.613 228.478 211.934 225.59 210.188 223.47C208.443 221.35 205.291 220.8 205.291 220.8Z" fill="white"/>
<path d="M198.833 381.097H283.52V293.034H198.833V381.097Z" fill="white" stroke="#263238" stroke-miterlimit="10"/>
<path d="M175.64 381.097H225.347V293.034H175.64V381.097Z" fill="#CCCCCC" stroke="#263238" stroke-miterlimit="10"/>
<path d="M189.227 353.29H208.703V316.886H189.227V353.29Z" fill="white" stroke="#263238" stroke-miterlimit="10"/>
<path d="M183.895 353.29H195.325V316.886H183.895V353.29Z" fill="#CCCCCC" stroke="#263238" stroke-miterlimit="10"/>
<path d="M193.535 318.994H185.701" stroke="#263238" stroke-miterlimit="10"/>
<path d="M193.535 321.24H185.701" stroke="#263238" stroke-miterlimit="10"/>
<path d="M193.535 323.486H185.701" stroke="#263238" stroke-miterlimit="10"/>
<path d="M193.535 325.731H185.701" stroke="#263238" stroke-miterlimit="10"/>
<path d="M193.535 327.977H185.701" stroke="#263238" stroke-miterlimit="10"/>
<path d="M174.082 294.493H286.053V289.846H174.082V294.493Z" fill="#808080" stroke="#263238" stroke-miterlimit="10"/>
<path d="M228.05 289.846H174.084V294.493H228.05V289.846Z" fill="#454545" stroke="#263238" stroke-miterlimit="10"/>
<path d="M246.348 311.479H248.923V308.816H260.768V311.479H263.342C267.54 311.479 270.954 314.566 270.954 318.361V356.774C270.954 360.569 267.54 363.656 263.342 363.656H246.349C242.152 363.656 238.736 360.569 238.736 356.774V318.361C238.735 314.566 242.151 311.479 246.348 311.479ZM241.867 356.774C241.867 359.008 243.878 360.825 246.348 360.825H263.341C265.812 360.825 267.822 359.008 267.822 356.774V318.361C267.822 316.128 265.812 314.31 263.341 314.31H246.348C243.878 314.31 241.867 316.128 241.867 318.361V356.774Z" fill="#49B02D" fill-opacity="0.5"/>
<path d="M243.512 326.884H266.53V318.624H243.512V326.884Z" fill="#49B02D" fill-opacity="0.5"/>
<path d="M243.512 336.883H266.53V328.623H243.512V336.883Z" fill="#49B02D" fill-opacity="0.5"/>
<path d="M243.512 346.883H266.53V338.623H243.512V346.883Z" fill="#49B02D" fill-opacity="0.5"/>
<path d="M243.512 356.882H266.53V348.621H243.512V356.882Z" fill="#49B02D" fill-opacity="0.5"/>
<path d="M94.5818 381.097H179.269V293.034H94.5818L94.5818 381.097Z" fill="white" stroke="#263238" stroke-miterlimit="10"/>
<path d="M71.3888 381.097H121.096L121.096 293.034H71.3888L71.3888 381.097Z" fill="#CCCCCC" stroke="#263238" stroke-miterlimit="10"/>
<path d="M84.9762 353.29H104.452V316.886H84.9762V353.29Z" fill="white" stroke="#263238" stroke-miterlimit="10"/>
<path d="M79.6437 353.29H91.0742V316.886H79.6437V353.29Z" fill="#CCCCCC" stroke="#263238" stroke-miterlimit="10"/>
<path d="M89.2836 318.994H81.4504" stroke="#263238" stroke-miterlimit="10"/>
<path d="M89.2836 321.24H81.4504" stroke="#263238" stroke-miterlimit="10"/>
<path d="M89.2836 323.486H81.4504" stroke="#263238" stroke-miterlimit="10"/>
<path d="M89.2836 325.731H81.4504" stroke="#263238" stroke-miterlimit="10"/>
<path d="M89.2836 327.977H81.4504" stroke="#263238" stroke-miterlimit="10"/>
<path d="M69.8316 294.493H181.803V289.846H69.8316V294.493Z" fill="#808080" stroke="#263238" stroke-miterlimit="10"/>
<path d="M123.798 289.846H69.8315V294.493H123.798V289.846Z" fill="#454545" stroke="#263238" stroke-miterlimit="10"/>
<path d="M142.097 311.479H144.672V308.816H156.517V311.479H159.092C163.289 311.479 166.704 314.566 166.704 318.361V356.774C166.704 360.569 163.289 363.656 159.092 363.656H142.099C137.901 363.656 134.486 360.569 134.486 356.774V318.361C134.485 314.566 137.9 311.479 142.097 311.479ZM137.616 356.774C137.616 359.008 139.627 360.825 142.097 360.825H159.091C161.561 360.825 163.571 359.008 163.571 356.774V318.361C163.571 316.128 161.561 314.31 159.091 314.31H142.097C139.627 314.31 137.616 316.128 137.616 318.361V356.774Z" fill="#49B02D" fill-opacity="0.5"/>
<path d="M139.261 326.884H162.279V318.624H139.261V326.884Z" fill="#49B02D" fill-opacity="0.5"/>
<path d="M139.261 336.883H162.279V328.623H139.261V336.883Z" fill="#49B02D" fill-opacity="0.5"/>
<path d="M139.261 346.883H162.279V338.623H139.261V346.883Z" fill="#49B02D" fill-opacity="0.5"/>
<path d="M139.261 356.882H162.279V348.621H139.261V356.882Z" fill="#49B02D" fill-opacity="0.5"/>
<path d="M55.2612 380.722H55.8208C57.1434 380.722 58.2148 379.753 58.2148 378.558V341.479C58.2148 340.284 57.1434 339.315 55.8208 339.315H55.2612C53.9386 339.315 52.8672 340.283 52.8672 341.479V378.558C52.8672 379.753 53.9386 380.722 55.2612 380.722Z" fill="#49B02D" fill-opacity="0.5" stroke="#263238" stroke-miterlimit="10"/>
<path d="M51.3 374.337H59.8822C60.3493 374.337 60.7962 374.513 61.1143 374.823L64.933 378.544C65.931 379.517 65.1681 381.097 63.7009 381.097H47.4812C46.014 381.097 45.2522 379.517 46.2491 378.544L50.0678 374.823C50.387 374.513 50.8329 374.337 51.3 374.337Z" fill="#49B02D" fill-opacity="0.5" stroke="#263238" stroke-miterlimit="10"/>
<path d="M51.3 368.094H59.8822C60.3493 368.094 60.7962 368.27 61.1143 368.58L64.933 372.301C65.931 373.273 65.1681 374.854 63.7009 374.854H47.4812C46.014 374.854 45.2522 373.273 46.2491 372.301L50.0678 368.58C50.387 368.27 50.8329 368.094 51.3 368.094Z" fill="#49B02D" fill-opacity="0.5" stroke="#263238" stroke-miterlimit="10"/>
<path d="M51.3 361.852H59.8822C60.3493 361.852 60.7962 362.028 61.1143 362.337L64.933 366.058C65.931 367.031 65.1681 368.612 63.7009 368.612H47.4812C46.014 368.612 45.2522 367.031 46.2491 366.058L50.0678 362.337C50.387 362.028 50.8329 361.852 51.3 361.852Z" fill="#49B02D" fill-opacity="0.5" stroke="#263238" stroke-miterlimit="10"/>
<path d="M51.3 355.608H59.8822C60.3493 355.608 60.7962 355.784 61.1143 356.094L64.933 359.815C65.931 360.788 65.1681 362.368 63.7009 362.368H47.4812C46.014 362.368 45.2522 360.788 46.2491 359.815L50.0678 356.094C50.387 355.784 50.8329 355.608 51.3 355.608Z" fill="#49B02D" fill-opacity="0.5" stroke="#263238" stroke-miterlimit="10"/>
<path d="M51.3 349.365H59.8822C60.3493 349.365 60.7962 349.541 61.1143 349.851L64.933 353.572C65.931 354.544 65.1681 356.125 63.7009 356.125H47.4812C46.014 356.125 45.2522 354.544 46.2491 353.572L50.0678 349.851C50.387 349.541 50.8329 349.365 51.3 349.365Z" fill="#49B02D" fill-opacity="0.5" stroke="#263238" stroke-miterlimit="10"/>
<path d="M51.3 343.122H59.8822C60.3493 343.122 60.7962 343.298 61.1143 343.608L64.933 347.329C65.931 348.302 65.1681 349.882 63.7009 349.882H47.4812C46.014 349.882 45.2522 348.302 46.2491 347.329L50.0678 343.608C50.387 343.298 50.8329 343.122 51.3 343.122Z" fill="#49B02D" fill-opacity="0.5" stroke="#263238" stroke-miterlimit="10"/>
<path d="M114.324 380.722H114.884C116.205 380.722 117.278 379.753 117.278 378.558V341.479C117.278 340.284 116.206 339.315 114.884 339.315H114.324C113.002 339.315 111.93 340.283 111.93 341.479V378.558C111.93 379.753 113.001 380.722 114.324 380.722Z" fill="#49B02D" fill-opacity="0.5" stroke="#263238" stroke-miterlimit="10"/>
<path d="M110.363 374.337H118.945C119.412 374.337 119.859 374.513 120.177 374.823L123.997 378.544C124.995 379.517 124.232 381.097 122.765 381.097H106.544C105.077 381.097 104.315 379.517 105.312 378.544L109.131 374.823C109.45 374.513 109.896 374.337 110.363 374.337Z" fill="#49B02D" fill-opacity="0.5" stroke="#263238" stroke-miterlimit="10"/>
<path d="M110.363 368.094H118.945C119.412 368.094 119.859 368.27 120.177 368.58L123.997 372.301C124.995 373.273 124.232 374.854 122.765 374.854H106.544C105.077 374.854 104.315 373.273 105.312 372.301L109.131 368.58C109.45 368.27 109.896 368.094 110.363 368.094Z" fill="#49B02D" fill-opacity="0.5" stroke="#263238" stroke-miterlimit="10"/>
<path d="M110.363 361.852H118.945C119.412 361.852 119.859 362.028 120.177 362.337L123.997 366.058C124.995 367.031 124.232 368.612 122.765 368.612H106.544C105.077 368.612 104.315 367.031 105.312 366.058L109.131 362.337C109.45 362.028 109.896 361.852 110.363 361.852Z" fill="#49B02D" fill-opacity="0.5" stroke="#263238" stroke-miterlimit="10"/>
<path d="M110.363 355.608H118.945C119.412 355.608 119.859 355.784 120.177 356.094L123.997 359.815C124.995 360.788 124.232 362.368 122.765 362.368H106.544C105.077 362.368 104.315 360.788 105.312 359.815L109.131 356.094C109.45 355.784 109.896 355.608 110.363 355.608Z" fill="#49B02D" fill-opacity="0.5" stroke="#263238" stroke-miterlimit="10"/>
<path d="M110.363 349.365H118.945C119.412 349.365 119.859 349.541 120.177 349.851L123.997 353.572C124.995 354.544 124.232 356.125 122.765 356.125H106.544C105.077 356.125 104.315 354.544 105.312 353.572L109.131 349.851C109.45 349.541 109.896 349.365 110.363 349.365Z" fill="#49B02D" fill-opacity="0.5" stroke="#263238" stroke-miterlimit="10"/>
<path d="M110.363 343.122H118.945C119.412 343.122 119.859 343.298 120.177 343.608L123.997 347.329C124.995 348.302 124.232 349.882 122.765 349.882H106.544C105.077 349.882 104.315 348.302 105.312 347.329L109.131 343.608C109.45 343.298 109.896 343.122 110.363 343.122Z" fill="#49B02D" fill-opacity="0.5" stroke="#263238" stroke-miterlimit="10"/>
<path d="M301.48 380.722H302.04C303.362 380.722 304.434 379.753 304.434 378.558V341.479C304.434 340.284 303.363 339.315 302.04 339.315H301.48C300.159 339.315 299.086 340.283 299.086 341.479V378.558C299.086 379.753 300.158 380.722 301.48 380.722Z" fill="#49B02D" fill-opacity="0.5" stroke="#263238" stroke-miterlimit="10"/>
<path d="M297.519 374.337H306.101C306.568 374.337 307.015 374.513 307.333 374.823L311.152 378.544C312.15 379.517 311.387 381.097 309.92 381.097H293.7C292.233 381.097 291.47 379.517 292.468 378.544L296.287 374.823C296.606 374.513 297.052 374.337 297.519 374.337Z" fill="#49B02D" fill-opacity="0.5" stroke="#263238" stroke-miterlimit="10"/>
<path d="M297.519 368.094H306.101C306.568 368.094 307.015 368.27 307.333 368.58L311.152 372.301C312.15 373.273 311.387 374.854 309.92 374.854H293.7C292.233 374.854 291.47 373.273 292.468 372.301L296.287 368.58C296.606 368.27 297.052 368.094 297.519 368.094Z" fill="#49B02D" fill-opacity="0.5" stroke="#263238" stroke-miterlimit="10"/>
<path d="M297.519 361.852H306.101C306.568 361.852 307.015 362.028 307.333 362.337L311.152 366.058C312.15 367.031 311.387 368.612 309.92 368.612H293.7C292.233 368.612 291.47 367.031 292.468 366.058L296.287 362.337C296.606 362.028 297.052 361.852 297.519 361.852Z" fill="#49B02D" fill-opacity="0.5" stroke="#263238" stroke-miterlimit="10"/>
<path d="M297.519 355.608H306.101C306.568 355.608 307.015 355.784 307.333 356.094L311.152 359.815C312.15 360.788 311.387 362.368 309.92 362.368H293.7C292.233 362.368 291.47 360.788 292.468 359.815L296.287 356.094C296.606 355.784 297.052 355.608 297.519 355.608Z" fill="#49B02D" fill-opacity="0.5" stroke="#263238" stroke-miterlimit="10"/>
<path d="M297.519 349.365H306.101C306.568 349.365 307.015 349.541 307.333 349.851L311.152 353.572C312.15 354.544 311.387 356.125 309.92 356.125H293.7C292.233 356.125 291.47 354.544 292.468 353.572L296.287 349.851C296.606 349.541 297.052 349.365 297.519 349.365Z" fill="#49B02D" fill-opacity="0.5" stroke="#263238" stroke-miterlimit="10"/>
<path d="M297.519 343.122H306.101C306.568 343.122 307.015 343.298 307.333 343.608L311.152 347.329C312.15 348.302 311.387 349.882 309.92 349.882H293.7C292.233 349.882 291.47 348.302 292.468 347.329L296.287 343.608C296.606 343.298 297.052 343.122 297.519 343.122Z" fill="#49B02D" fill-opacity="0.5" stroke="#263238" stroke-miterlimit="10"/>
<path d="M434.866 381.01H576.064V244.218L434.866 244.218V381.01Z" fill="white" stroke="#263238" stroke-miterlimit="10"/>
<path d="M352.466 235.941L399 180.921L436.568 235.941V381.01H352.466V235.941Z" fill="white" stroke="#263238" stroke-miterlimit="10"/>
<path d="M406.066 173.305L353.17 263.973H335.531L388.427 173.305H406.066Z" fill="#263238" stroke="#263238" stroke-miterlimit="10"/>
<path d="M389.943 173.305H538.426L591.322 263.973H442.84L389.943 173.305Z" fill="#263238" stroke="#263238" stroke-miterlimit="10"/>
<path d="M380.438 381.096H413.657V308.276H380.438V381.096Z" fill="white" stroke="#263238" stroke-miterlimit="10"/>
<path d="M451.948 286.359V270.885H485.167V315.433H451.948V292.985" fill="white"/>
<path d="M451.948 286.359V270.885H485.167V315.433H451.948V292.985" stroke="#263238" stroke-miterlimit="10"/>
<path d="M454.82 311.582H482.295V274.737H454.82V311.582Z" fill="white" stroke="#263238" stroke-miterlimit="10"/>
<path d="M466.923 311.582H470.193V274.737H466.923V311.582Z" fill="white" stroke="#263238" stroke-miterlimit="10"/>
<path d="M394.513 269.35H381.562V224.801H414.78V269.35H400.011" fill="white"/>
<path d="M394.513 269.35H381.562V224.801H414.78V269.35H400.011" stroke="#263238" stroke-miterlimit="10"/>
<path d="M384.434 265.498H411.909V228.652H384.434V265.498Z" fill="white" stroke="#263238" stroke-miterlimit="10"/>
<path d="M396.537 265.498H399.807V228.652H396.537V265.498Z" fill="white" stroke="#263238" stroke-miterlimit="10"/>
<path d="M451.949 367.661H485.168V323.112H451.949V367.661Z" fill="white" stroke="#263238" stroke-miterlimit="10"/>
<path d="M454.82 363.81H482.295V326.965H454.82V363.81Z" fill="white" stroke="#263238" stroke-miterlimit="10"/>
<path d="M466.923 363.81H470.193V326.965H466.923V363.81Z" fill="white" stroke="#263238" stroke-miterlimit="10"/>
<path d="M524.276 315.433H557.496V270.884H524.276V315.433Z" fill="white" stroke="#263238" stroke-miterlimit="10"/>
<path d="M527.149 311.582H554.624V274.736H527.149V311.582Z" fill="white" stroke="#263238" stroke-miterlimit="10"/>
<path d="M539.251 282.051V274.736H542.521V311.582H539.251V286.689" fill="white"/>
<path d="M539.251 282.051V274.736H542.521V311.582H539.251V286.689" stroke="#263238" stroke-miterlimit="10"/>
<path d="M524.276 367.661H557.496V323.112H524.276V367.661Z" fill="white" stroke="#263238" stroke-miterlimit="10"/>
<path d="M527.149 363.81H554.624V326.965H527.149V363.81Z" fill="white" stroke="#263238" stroke-miterlimit="10"/>
<path d="M539.251 363.81H542.521V326.965H539.251V363.81Z" fill="white" stroke="#263238" stroke-miterlimit="10"/>
<path d="M629.567 342.437H611.186V371.206H629.567V342.437Z" fill="#263238" stroke="#263238" stroke-miterlimit="10"/>
<path d="M602.139 350.483H594.865C591.341 350.483 588.484 357.336 588.484 365.79C588.484 374.244 591.341 381.097 594.865 381.097H602.139C605.663 381.097 608.52 374.244 608.52 365.79C608.52 357.336 605.663 350.483 602.139 350.483Z" fill="#263238" stroke="#263238" stroke-miterlimit="10"/>
<path d="M609.344 348.383C605.169 348.383 601.786 355.706 601.786 364.739C601.786 373.773 605.169 381.096 609.344 381.096H617.96V348.383H609.344Z" fill="#263238" stroke="#263238" stroke-miterlimit="10"/>
<path d="M617.96 381.096C622.134 381.096 625.517 373.773 625.517 364.739C625.517 355.706 622.134 348.383 617.96 348.383C613.786 348.383 610.402 355.706 610.402 364.739C610.402 373.773 613.786 381.096 617.96 381.096Z" fill="#707070" stroke="#263238" stroke-miterlimit="10"/>
<path d="M617.96 376.073C620.852 376.073 623.197 370.999 623.197 364.74C623.197 358.48 620.852 353.406 617.96 353.406C615.067 353.406 612.723 358.48 612.723 364.74C612.723 370.999 615.067 376.073 617.96 376.073Z" fill="white" stroke="#263238" stroke-miterlimit="10"/>
<path d="M676.802 367.631C678.696 365.063 679.668 362.588 680.162 360.531V352.969C678.72 348.051 673.713 344.391 670.393 342.436H661.782V371.205H675.827C675.699 369.986 675.96 368.775 676.802 367.631Z" fill="#263238" stroke="#263238" stroke-miterlimit="10"/>
<path d="M665.002 350.483C661.478 350.483 658.622 357.336 658.622 365.79C658.622 374.244 661.478 381.097 665.002 381.097H672.277V350.484H665.002V350.483Z" fill="#263238" stroke="#263238" stroke-miterlimit="10"/>
<path d="M672.277 381.097C675.801 381.097 678.658 374.244 678.658 365.79C678.658 357.336 675.801 350.483 672.277 350.483C668.753 350.483 665.896 357.336 665.896 365.79C665.896 374.244 668.753 381.097 672.277 381.097Z" fill="#707070" stroke="#263238" stroke-miterlimit="10"/>
<path d="M672.277 376.396C674.719 376.396 676.699 371.647 676.699 365.79C676.699 359.932 674.719 355.184 672.277 355.184C669.835 355.184 667.855 359.932 667.855 365.79C667.855 371.647 669.835 376.396 672.277 376.396Z" fill="white" stroke="#263238" stroke-miterlimit="10"/>
<path d="M540.869 348.383H532.252C528.078 348.383 524.695 355.706 524.695 364.739C524.695 373.773 528.078 381.096 532.252 381.096H540.869C545.043 381.096 548.426 373.773 548.426 364.739C548.426 355.706 545.043 348.383 540.869 348.383Z" fill="#263238" stroke="#263238" stroke-miterlimit="10"/>
<path d="M678.382 345.257C676.246 340.207 675.753 336.938 672.631 333.522C669.51 330.105 668.359 328.619 668.359 328.619C668.359 328.619 661.952 317.329 659.487 315.398C657.023 313.467 646.178 310.051 637.634 308.564C629.09 307.079 602.308 305.891 580.292 309.456C580.292 309.456 571.748 310.199 563.697 314.656C555.646 319.113 543.651 329.066 540.53 330.551C537.409 332.036 535.766 330.699 532.315 334.265C528.865 337.83 526.072 341.99 526.072 341.99C526.072 341.99 520.65 347.635 519.992 350.607C519.335 353.578 519.171 357.143 519.499 359.966C519.828 362.789 522.457 370.662 523.771 372.148C525.085 373.633 528.074 374.099 530.867 373.801C533.66 373.504 546.281 373.04 560.083 372.742C573.884 372.445 584.893 373.188 587.522 373.485C590.151 373.782 597.709 373.93 600.174 373.633C602.638 373.336 603.788 373.633 606.089 371.108C608.389 368.583 608.882 366.206 609.046 364.868C609.21 363.531 611.017 347.191 617.097 344.962C623.177 342.734 625.97 350.755 627.12 355.954C628.27 361.154 625.641 369.77 624.983 370.661C624.326 371.553 624.819 371.85 626.297 371.999C627.776 372.147 662.28 371.999 662.28 371.999C662.28 371.999 664.909 370.216 665.402 367.394C665.894 364.571 669.181 351.944 671.974 349.419C674.767 346.893 678.382 348.528 679.368 353.281C679.924 355.964 679.747 358.505 679.311 360.557C679.134 361.393 678.912 362.144 678.68 362.794C678.673 363.38 678.667 364.012 678.663 364.674C679.478 363.962 680.66 362.142 680.847 359.372C681.175 354.467 680.518 350.308 678.382 345.257Z" fill="#49B02D" fill-opacity="0.5" stroke="#263238" stroke-miterlimit="10"/>
<path d="M625.311 310.495C625.311 310.495 618.575 320.745 616.438 323.27C614.303 325.796 608.716 327.876 596.394 329.064C584.07 330.252 563.204 331.143 556.796 330.401C550.388 329.658 547.759 328.766 547.759 328.766C547.759 328.766 559.589 317.327 565.176 314.059C570.762 310.792 613.645 308.564 625.311 310.495Z" fill="#C2C2C2" stroke="#263238" stroke-miterlimit="10"/>
<path d="M639.442 310.941C639.442 310.941 633.035 309.753 629.584 312.278C626.133 314.803 619.232 327.876 619.397 329.362C619.562 330.847 619.562 331.145 623.34 331.293C627.12 331.441 647.657 330.847 652.587 329.213C657.516 327.578 659.323 326.538 660.144 323.865C660.966 321.192 659.98 317.328 658.83 316.586C657.679 315.843 639.442 310.941 639.442 310.941Z" fill="#8C8C8C" stroke="#263238" stroke-miterlimit="10"/>
<path d="M646.507 312.872C645.47 312.585 644.478 312.311 643.581 312.066C644.288 313.292 646.599 318.218 646.688 330.224C647.522 330.133 648.306 330.037 649.03 329.935C648.937 320.741 647.567 315.534 646.507 312.872Z" fill="#263238"/>
<path d="M651.108 336.195C651.108 336.195 645.028 336.195 644.699 337.235C644.37 338.275 646.671 338.127 648.314 338.127C649.956 338.127 652.586 337.532 651.108 336.195Z" fill="#263238" stroke="#263238" stroke-miterlimit="10"/>
<path d="M667.643 334.832C667.643 334.832 663.837 334.832 663.632 335.646C663.427 336.459 664.866 336.343 665.895 336.343C666.923 336.344 668.569 335.878 667.643 334.832Z" fill="#263238" stroke="#263238" stroke-miterlimit="10"/>
<path d="M610.524 333.818C610.524 333.818 601.487 339.611 599.187 340.503C596.886 341.395 579.963 345.256 578.977 344.513C577.991 343.771 584.892 334.411 591.464 332.035C598.036 329.658 602.637 329.361 607.073 329.51C611.51 329.659 612.002 330.55 610.524 333.818Z" fill="white" stroke="#263238" stroke-miterlimit="10"/>
<path d="M532.314 334.264C528.864 337.83 526.071 341.989 526.071 341.989C526.399 342.732 531.328 345.554 532.643 345.554C533.957 345.554 533.629 342.732 535.107 339.019C536.586 335.304 540.529 330.551 540.529 330.551C537.408 332.035 535.765 330.699 532.314 334.264Z" fill="white" stroke="#263238" stroke-miterlimit="10"/>
<path d="M532.966 354.318C531.121 354.82 529.564 355.959 528.628 357.481C527.857 358.737 527.137 360.178 527.387 360.855C527.879 362.192 529.687 364.717 530.837 365.014C531.987 365.312 563.698 367.985 578.158 363.677C578.158 363.677 573.393 356.101 571.749 354.913C570.106 353.724 566.985 353.278 566.327 353.278C565.669 353.278 536.588 353.426 534.123 354.021C533.708 354.122 533.322 354.221 532.966 354.318Z" fill="#8C8C8C" stroke="#263238" stroke-miterlimit="10"/>
<path d="M578.156 363.677C578.156 363.677 577.512 362.653 576.616 361.3H527.578C528.243 362.687 529.803 364.747 530.835 365.015C531.987 365.312 563.697 367.986 578.156 363.677Z" fill="#263238" stroke="#263238" stroke-miterlimit="10"/>
<path d="M563.862 355.062H536.258V360.707H563.862V355.062Z" fill="white" stroke="#263238" stroke-miterlimit="10"/>
<path d="M591.793 363.678C593.427 363.678 594.751 362.481 594.751 361.004C594.751 359.527 593.427 358.33 591.793 358.33C590.159 358.33 588.835 359.527 588.835 361.004C588.835 362.481 590.159 363.678 591.793 363.678Z" fill="white" stroke="#263238" stroke-miterlimit="10"/>
<path d="M522.785 363.678C524.419 363.678 525.743 362.481 525.743 361.004C525.743 359.527 524.419 358.33 522.785 358.33C521.151 358.33 519.827 359.527 519.827 361.004C519.827 362.481 521.151 363.678 522.785 363.678Z" fill="white" stroke="#263238" stroke-miterlimit="10"/>
<path d="M563.974 339.92C563.974 339.92 547.611 339.605 545.639 340.025C543.666 340.444 542.853 341.599 542.97 343.382C543.086 345.166 543.782 347.999 545.059 348.313C546.336 348.628 556.547 348.418 558.172 347.789C559.796 347.16 564.555 344.432 565.25 342.543C565.947 340.654 565.714 339.92 563.974 339.92Z" stroke="#263238" stroke-width="0.75" stroke-miterlimit="10"/>
<path d="M565.134 340.759L581.612 338.975" stroke="#263238" stroke-width="0.75" stroke-miterlimit="10"/>
<path d="M543.318 341.389L535.542 340.13" stroke="#263238" stroke-miterlimit="10"/>
<path d="M597.385 369.557C597.385 369.557 599.317 368.184 599.042 364.316C598.766 360.448 597.662 348.844 600.56 344.477C602.987 340.819 610.741 336.723 618.384 335.197" stroke="#263238" stroke-width="0.75" stroke-miterlimit="10"/>
<path d="M629.128 366.811C629.128 366.811 659.075 365.938 660.869 365.439C662.663 364.939 664.043 363.567 665.147 360.947C666.252 358.327 667.907 349.718 669.012 347.471C670.116 345.225 670.805 344.727 670.805 344.727C670.805 344.727 671.772 337.241 669.287 332.748" stroke="#263238" stroke-width="0.75" stroke-miterlimit="10"/>
<path d="M652.312 339.361C652.312 339.361 656.177 355.083 649.966 365.938" stroke="#263238" stroke-width="0.75" stroke-miterlimit="10"/>
<path d="M627.057 335.493C627.057 335.493 632.025 346.598 629.679 358.701" stroke="#263238" stroke-width="0.75" stroke-miterlimit="10"/>
<path d="M581.791 370.555C580.273 370.555 577.651 370.68 575.167 369.556C572.682 368.434 536.801 369.431 535.007 369.431C533.586 369.431 526.363 370.997 523.423 371.648C523.546 371.847 523.664 372.024 523.771 372.145C525.085 373.63 528.074 374.096 530.867 373.799C533.66 373.501 546.281 373.037 560.082 372.74C573.884 372.442 584.893 373.185 587.522 373.482C590.151 373.779 597.709 373.928 600.174 373.63C602.638 373.333 603.788 373.63 606.089 371.105C603.335 370.409 583.31 370.555 581.791 370.555Z" fill="#263238" stroke="#263238" stroke-miterlimit="10"/>
<path d="M670.986 346.675C672.055 346.675 672.922 344.803 672.922 342.494C672.922 340.185 672.055 338.313 670.986 338.313C669.917 338.313 669.051 340.185 669.051 342.494C669.051 344.803 669.917 346.675 670.986 346.675Z" fill="#263238" stroke="#263238" stroke-miterlimit="10"/>
<path d="M702.69 315.804H690.761V380.004H702.69V315.804Z" fill="#263238" stroke="#263238" stroke-miterlimit="10"/>
<path d="M706.777 311.34H686.565V344.332H706.777V311.34Z" fill="white" stroke="#263238" stroke-miterlimit="10"/>
<path d="M670.986 342.494H676.821C680.013 342.494 682.601 344.834 682.601 347.72V376.955C682.601 379.243 684.652 381.096 687.181 381.096H711.694C714.158 381.096 716.155 379.291 716.155 377.063V333.457C716.155 331.091 714.034 329.172 711.416 329.172H706.261" stroke="#263238" stroke-width="2" stroke-miterlimit="10"/>
<path d="M710.563 327.228H706.691V331.506H710.563V327.228Z" fill="#263238" stroke="#263238" stroke-miterlimit="10"/>
<path d="M703.133 324.455C703.133 321.059 700.089 318.307 696.333 318.307C692.577 318.307 689.533 321.059 689.533 324.455C689.533 327.851 692.577 330.603 696.333 330.603C700.089 330.603 703.133 327.851 703.133 324.455Z" fill="#49B02D" fill-opacity="0.5" stroke="#263238" stroke-miterlimit="10"/>
<path d="M694.234 315.09L690.934 322.436H694.893L692.419 328.478H695.636L694.526 335.502L701.576 325.345H698.339L701.082 319.302H697.03L698.762 315.05L694.234 315.09Z" fill="white" stroke="#263238" stroke-miterlimit="10"/>
<path d="M-21.0862 381.096H740.952" stroke="#263238" stroke-miterlimit="10"/>
</svg>
